<svg version="1.1" xmlns="http://www.w3.org/2000/svg" xmlns:xlink="http://www.w3.org/1999/xlink" width="24" height="24" viewBox="0 0 24 24" aria-hidden="true">
    <path d="M21.75 3h-19.5c-1.237 0-2.25 1.012-2.25 2.25v15c0 1.237 1.013 2.25 2.25 2.25h19.5c1.237 0 2.25-1.013 2.25-2.25v-15c0-1.238-1.013-2.25-2.25-2.25zM9.345 12.899l-6.345 4.943v-11.757l6.345 6.814zM4.134 6h15.732l-7.866 5.906-7.866-5.906zM9.593 13.165l2.407 2.585 2.407-2.585 4.935 6.335h-14.684l4.935-6.335zM14.655 12.899l6.345-6.814v11.757l-6.345-4.943z"></path>
</svg>
