<?xml version="1.0" encoding="utf-8"?>
<!-- Generator: Adobe Illustrator 16.0.0, SVG Export Plug-In . SVG Version: 6.00 Build 0)  -->
<!DOCTYPE svg PUBLIC "-//W3C//DTD SVG 1.1//EN" "http://www.w3.org/Graphics/SVG/1.1/DTD/svg11.dtd">
<svg version="1.1" id="Ebene_1" xmlns="http://www.w3.org/2000/svg" xmlns:xlink="http://www.w3.org/1999/xlink" x="0px" y="0px"
	 width="64px" height="64px" viewBox="-7 -7 64 64" enable-background="new -7 -7 64 64" xml:space="preserve">
<path fill="#005963" d="M49.963,25.09c-7.285,0-14.531,0-21.777,0c-0.012,0.027-0.022,0.054-0.033,0.081
	c2.923,3.556,5.856,7.095,8.74,10.685c1.465,1.824,2.922,3.656,4.373,5.49c1.437,1.814,3.147,3.57,4.353,5.549
	c0.705,1.155-0.085,2.59-1.292,2.972c-0.73,0.229-1.623,0.095-2.377,0.095c-1.028-0.001-2.057-0.001-3.084-0.001
	c-3.672,0-7.342,0.001-11.014-0.007c-3.395-0.008-6.642-0.119-9.934-1.029c-3.113-0.859-6.094-2.459-8.602-4.48
	C-1.148,35.999-3.08,20.332,5.152,9.661C11.797,1.048,23.36-2.137,33.547,1.453C43.414,4.933,49.963,14.728,49.963,25.09
	C42.677,25.09,49.963,24.899,49.963,25.09z M41.113,46.646c-1.357-1.902-3.01-3.67-4.49-5.485c-1.671-2.05-3.316-4.118-4.989-6.165
	c-1.606-1.967-3.192-3.948-4.784-5.926c-0.754-0.938-1.521-1.862-2.289-2.789c-0.742-0.892-1.685-1.846-1.178-3.1
	c0.72-1.778,2.848-1.38,4.387-1.38c2.158,0,4.317,0,6.476,0c4.049,0,8.137,0.163,12.181-0.024c0-1.377-0.566-3.036-1.042-4.316
	c-0.582-1.569-1.346-3.102-2.271-4.497c-1.771-2.674-4.104-4.867-6.817-6.561c-5.704-3.56-12.64-4.053-18.918-1.844
	C11.36,6.678,6.335,11.87,4.367,17.934C2.358,24.12,3.03,30.909,6.514,36.45c3.324,5.288,8.823,8.913,14.97,9.968
	c3.128,0.536,6.432,0.252,9.591,0.251C34.411,46.668,37.783,46.814,41.113,46.646C40.979,46.458,40.891,46.658,41.113,46.646z"/>
</svg>
