<svg version="1.1" xmlns="http://www.w3.org/2000/svg" xmlns:xlink="http://www.w3.org/1999/xlink" width="24" height="24" viewBox="0 0 24 24" aria-labelledby="title6" role="img">
    <title id="title6">Das Steam Logo</title>
    <path fill="#FFFFFF" d="M16.5 6.75c0-1.243 1.007-2.25 2.25-2.25s2.25 1.007 2.25 2.25c0 1.243-1.007 2.25-2.25 2.25s-2.25-1.007-2.25-2.25zM22.462 3.038c-2.050-2.050-5.374-2.050-7.425 0-0.834 0.834-1.329 1.878-1.484 2.962v0l-4.798 7.271c-0.645 0.033-1.284 0.197-1.874 0.493l-3.701-2.893c-0.857-0.67-2.094-0.518-2.764 0.339s-0.518 2.094 0.339 2.764l3.655 2.857c-0.397 1.565 0.016 3.294 1.241 4.519 1.849 1.849 4.848 1.849 6.697 0 1.136-1.136 1.574-2.705 1.314-4.176l5.837-5.226c1.084-0.156 2.128-0.65 2.962-1.484 2.050-2.050 2.050-5.374 0-7.425zM9 21.157c-1.744 0-3.157-1.413-3.157-3.157 0-0.017 0.001-0.033 0.001-0.050l1.568 1.226c0.36 0.281 0.787 0.418 1.211 0.418 0.585 0 1.164-0.26 1.552-0.756 0.67-0.857 0.518-2.094-0.339-2.764l-1.488-1.163c0.21-0.044 0.428-0.068 0.651-0.068 1.744 0 3.157 1.413 3.157 3.157s-1.413 3.157-3.157 3.157zM18.75 10.5c-2.071 0-3.75-1.679-3.75-3.75s1.679-3.75 3.75-3.75 3.75 1.679 3.75 3.75-1.679 3.75-3.75 3.75z"></path>
</svg>