<svg version="1.1" xmlns="http://www.w3.org/2000/svg" xmlns:xlink="http://www.w3.org/1999/xlink" width="24" height="24" viewBox="0 0 24 24" aria-hidden="true">
    <path d="M3.647 4.739c-0.206 0-0.384 0.075-0.473 0.216-0.089 0.15-0.075 0.338 0.019 0.53l2.339 4.050c0.005 0.009 0.005 0.014 0 0.019l-3.675 6.497c-0.094 0.192-0.089 0.384 0 0.53 0.089 0.141 0.244 0.234 0.45 0.234h3.459c0.516 0 0.769-0.352 0.942-0.67 0 0 3.595-6.361 3.736-6.609-0.014-0.023-2.381-4.148-2.381-4.148-0.173-0.305-0.431-0.647-0.966-0.647h-3.45z"></path>
    <path d="M18.188 0c-0.516 0-0.741 0.323-0.928 0.661 0 0-7.458 13.223-7.702 13.659 0.014 0.023 4.917 9.023 4.917 9.023 0.173 0.305 0.436 0.661 0.966 0.661h3.459c0.206 0 0.37-0.080 0.459-0.22 0.094-0.15 0.089-0.342-0.009-0.534l-4.875-8.92c-0.005-0.009-0.005-0.014 0-0.023l7.664-13.552c0.094-0.192 0.098-0.384 0.009-0.534-0.089-0.141-0.253-0.22-0.459-0.22h-3.502z"></path>
</svg>
